<svg width="160" height="160" viewBox="0 0 160 160" fill="none" xmlns="http://www.w3.org/2000/svg">
<rect x="1" y="1" width="158" height="158" rx="39" fill="#121E28"/>
<rect x="1" y="1" width="158" height="158" rx="39" stroke="#2A3744" stroke-width="2"/>
<g filter="url(#filter0_d_8758_23298)">
<rect x="52" y="51.9999" width="56.0003" height="56.0003" rx="28.0001" fill="url(#paint0_linear_8758_23298)"/>
<path d="M67.8489 77.8267C68.2093 78.5661 69.1012 80.0274 69.1012 80.0274L79.412 63.6666L69.3489 70.4115C68.7493 70.7955 68.2573 71.3152 67.9165 71.9248C67.4581 72.8445 67.2146 73.8492 67.203 74.8686C67.1913 75.888 67.4117 76.8976 67.8489 77.8267Z" fill="#10151A"/>
<path d="M63.7633 83.214C63.8769 84.779 64.3376 86.3026 65.1144 87.6829C65.8913 89.0631 66.9664 90.268 68.2678 91.2171L79.3984 98.6668C79.3984 98.6668 72.4345 89.0336 66.5606 79.4481C65.9659 78.4353 65.5661 77.3281 65.3804 76.1793C65.2982 75.6592 65.2982 75.13 65.3804 74.6099C65.2273 74.8822 64.9299 75.44 64.9299 75.44C64.3344 76.6059 63.9287 77.8527 63.7272 79.1367C63.6113 80.4941 63.6233 81.8587 63.7633 83.214Z" fill="#10151A"/>
<path d="M92.1598 84.5067C91.7994 83.7675 90.9076 82.306 90.9076 82.306L80.5967 98.6668L90.6599 91.9263C91.2595 91.5422 91.7513 91.0225 92.0922 90.4129C92.5513 89.4926 92.7951 88.4872 92.8069 87.467C92.8185 86.4468 92.5977 85.4365 92.1598 84.5067Z" fill="#10151A"/>
<path d="M96.2454 79.1194C96.1318 77.5544 95.6711 76.0308 94.8943 74.6506C94.1175 73.2703 93.0423 72.0654 91.7409 71.1163L80.6102 63.6666C80.6102 63.6666 87.5697 73.2998 93.4481 82.8853C94.0413 83.8983 94.4394 85.0056 94.6238 86.1541C94.706 86.6742 94.706 87.2034 94.6238 87.7236C94.7769 87.4511 95.0742 86.8934 95.0742 86.8934C95.6698 85.7275 96.0755 84.4807 96.277 83.1967C96.3945 81.8395 96.3839 80.4748 96.2454 79.1194Z" fill="#10151A"/>
<path d="M67.9165 71.9248C68.2573 71.3152 68.7493 70.7955 69.3489 70.4115L79.412 63.6666L69.1011 80.0317C69.1011 80.0317 68.2002 78.5703 67.8489 77.8309C67.411 76.9013 67.1902 75.8909 67.2019 74.8707C67.2136 73.8505 67.4575 72.8451 67.9165 71.9248ZM63.7633 83.214C63.8769 84.779 64.3376 86.3026 65.1144 87.6829C65.8913 89.0631 66.9664 90.268 68.2678 91.2171L79.3984 98.6668C79.3984 98.6668 72.4345 89.0336 66.5606 79.4481C65.9659 78.4353 65.5661 77.3281 65.3804 76.1793C65.2982 75.6592 65.2982 75.13 65.3804 74.6099C65.2273 74.8822 64.9299 75.44 64.9299 75.44C64.3344 76.6059 63.9287 77.8527 63.7272 79.1367C63.6113 80.4941 63.6233 81.8587 63.7633 83.214ZM92.1418 84.5111C91.7814 83.7717 90.8896 82.3103 90.8896 82.3103L80.5967 98.6668L90.6599 91.9263C91.2595 91.5422 91.7513 91.0225 92.0922 90.4129C92.5513 89.4926 92.7951 88.4872 92.8069 87.467C92.8185 86.4468 92.5977 85.4365 92.1598 84.5067L92.1418 84.5111ZM96.2273 79.1238C96.1138 77.5588 95.6531 76.0351 94.8762 74.6549C94.0994 73.2747 93.0243 72.0697 91.7228 71.1206L80.6102 63.6666C80.6102 63.6666 87.5697 73.2998 93.4481 82.8853C94.0413 83.8983 94.4394 85.0056 94.6238 86.1541C94.706 86.6742 94.706 87.2034 94.6238 87.7236C94.7769 87.4511 95.0742 86.8934 95.0742 86.8934C95.6698 85.7275 96.0755 84.4807 96.277 83.1967C96.3945 81.8395 96.3839 80.4748 96.2454 79.1194L96.2273 79.1238Z" fill="#10151A"/>
</g>
<defs>
<filter id="filter0_d_8758_23298" x="5" y="4.99986" width="150" height="150" filterUnits="userSpaceOnUse" color-interpolation-filters="sRGB">
<feFlood flood-opacity="0" result="BackgroundImageFix"/>
<feColorMatrix in="SourceAlpha" type="matrix" values="0 0 0 0 0 0 0 0 0 0 0 0 0 0 0 0 0 0 127 0" result="hardAlpha"/>
<feOffset/>
<feGaussianBlur stdDeviation="23.5"/>
<feComposite in2="hardAlpha" operator="out"/>
<feColorMatrix type="matrix" values="0 0 0 0 0.458824 0 0 0 0 0.721569 0 0 0 0 0.984314 0 0 0 0.3 0"/>
<feBlend mode="normal" in2="BackgroundImageFix" result="effect1_dropShadow_8758_23298"/>
<feBlend mode="normal" in="SourceGraphic" in2="effect1_dropShadow_8758_23298" result="shape"/>
</filter>
<linearGradient id="paint0_linear_8758_23298" x1="80.0001" y1="51.9999" x2="80.0001" y2="108" gradientUnits="userSpaceOnUse">
<stop stop-color="#A09FFE"/>
<stop offset="1" stop-color="#4ACEF7"/>
</linearGradient>
</defs>
</svg>
