<svg width="160" height="160" viewBox="0 0 160 160" fill="none" xmlns="http://www.w3.org/2000/svg">
<rect x="1" y="1" width="158" height="158" rx="39" fill="#121E28"/>
<rect x="1" y="1" width="158" height="158" rx="39" stroke="#2A3744" stroke-width="2"/>
<g filter="url(#filter0_d_8758_23280)">
<circle cx="79.9995" cy="80.0503" r="28.0503" fill="url(#paint0_linear_8758_23280)"/>
<path d="M88.4157 74.4167C87.8176 74.0726 87.0486 74.0726 86.365 74.4167L81.5801 77.255L78.3332 79.0612L73.6338 81.8995C73.0357 82.2436 72.2666 82.2436 71.5831 81.8995L67.909 79.6633C67.3108 79.3192 66.8836 78.6312 66.8836 77.8571V73.5566C66.8836 72.8685 67.2254 72.1804 67.909 71.7504L71.5831 69.6001C72.1812 69.2561 72.9502 69.2561 73.6338 69.6001L77.3079 71.8364C77.906 72.1804 78.3332 72.8685 78.3332 73.6426V76.4809L81.5801 74.5887V71.6644C81.5801 70.9763 81.2384 70.2882 80.5548 69.8581L73.7192 65.8157C73.1211 65.4716 72.3521 65.4716 71.6685 65.8157L64.6621 69.9442C63.9785 70.2882 63.6367 70.9763 63.6367 71.6644V79.7493C63.6367 80.4374 63.9785 81.1254 64.6621 81.5555L71.5831 85.598C72.1812 85.942 72.9502 85.942 73.6338 85.598L78.3332 82.8456L81.5801 80.9534L86.2796 78.2011C86.8777 77.8571 87.6467 77.8571 88.3303 78.2011L92.0044 80.3514C92.6025 80.6954 93.0297 81.3835 93.0297 82.1576V86.4581C93.0297 87.1461 92.688 87.8342 92.0044 88.2643L88.4157 90.4145C87.8176 90.7586 87.0486 90.7586 86.365 90.4145L82.6909 88.2643C82.0928 87.9202 81.6656 87.2321 81.6656 86.4581V83.7057L78.4187 85.598V88.4363C78.4187 89.1244 78.7605 89.8124 79.444 90.2425L86.365 94.285C86.9632 94.629 87.7322 94.629 88.4157 94.285L95.3368 90.2425C95.9349 89.8985 96.3621 89.2104 96.3621 88.4363V80.2653C96.3621 79.5773 96.0203 78.8892 95.3368 78.4591L88.4157 74.4167Z" fill="#10151A"/>
</g>
<defs>
<filter id="filter0_d_8758_23280" x="4.94922" y="5" width="150.102" height="150.101" filterUnits="userSpaceOnUse" color-interpolation-filters="sRGB">
<feFlood flood-opacity="0" result="BackgroundImageFix"/>
<feColorMatrix in="SourceAlpha" type="matrix" values="0 0 0 0 0 0 0 0 0 0 0 0 0 0 0 0 0 0 127 0" result="hardAlpha"/>
<feOffset/>
<feGaussianBlur stdDeviation="23.5"/>
<feComposite in2="hardAlpha" operator="out"/>
<feColorMatrix type="matrix" values="0 0 0 0 0.509804 0 0 0 0 0.278431 0 0 0 0 0.898039 0 0 0 0.3 0"/>
<feBlend mode="normal" in2="BackgroundImageFix" result="effect1_dropShadow_8758_23280"/>
<feBlend mode="normal" in="SourceGraphic" in2="effect1_dropShadow_8758_23280" result="shape"/>
</filter>
<linearGradient id="paint0_linear_8758_23280" x1="79.9995" y1="52" x2="79.9995" y2="108.101" gradientUnits="userSpaceOnUse">
<stop stop-color="#965EF4"/>
<stop offset="1" stop-color="#8247E5"/>
</linearGradient>
</defs>
</svg>
