<svg width="160" height="160" viewBox="0 0 160 160" fill="none" xmlns="http://www.w3.org/2000/svg">
<rect x="1" y="1" width="158" height="158" rx="39" fill="#121E28"/>
<rect x="1" y="1" width="158" height="158" rx="39" stroke="#2A3744" stroke-width="2"/>
<g filter="url(#filter0_d_8758_23282)">
<g clip-path="url(#clip0_8758_23282)">
<path d="M108 80C108 95.4631 95.4631 108 80 108C64.5369 108 52 95.4631 52 80C52 64.5369 64.5369 52 80 52C95.4663 52 108 64.5369 108 80Z" fill="url(#paint0_linear_8758_23282)"/>
<path d="M65.8134 80.9408L65.9343 80.751L73.2182 69.3562C73.3246 69.1893 73.5749 69.2066 73.6554 69.3878C74.8723 72.115 75.9223 75.5067 75.4304 77.6182C75.2204 78.4869 74.6451 79.6636 73.9978 80.751C73.9143 80.9092 73.8223 81.0646 73.7245 81.2141C73.6784 81.2832 73.6008 81.3235 73.5173 81.3235H66.0263C65.8249 81.3235 65.707 81.1048 65.8134 80.9408Z" fill="#10151A"/>
<path d="M98.2826 83.0582V84.8619C98.2826 84.9654 98.2193 85.0575 98.1273 85.0977C97.5634 85.3394 95.6331 86.2255 94.8305 87.3416C92.7823 90.1924 91.2173 94.2688 87.7192 94.2688H73.1255C67.9531 94.2688 63.7617 90.063 63.7617 84.8734V84.7065C63.7617 84.5684 63.8739 84.4562 64.012 84.4562H72.1474C72.3085 84.4562 72.4265 84.6058 72.4121 84.764C72.3545 85.2934 72.4524 85.8342 72.7026 86.3261C73.186 87.3071 74.1871 87.9198 75.2687 87.9198H79.2961V84.7756H75.3147C75.1105 84.7756 74.9897 84.5397 75.1076 84.3728C75.1507 84.3066 75.1997 84.2376 75.2514 84.1599C75.6283 83.6249 76.1662 82.7935 76.7013 81.847C77.0666 81.2084 77.4205 80.5266 77.7053 79.842C77.7628 79.7183 77.8089 79.5917 77.8549 79.4679C77.9326 79.2493 78.0131 79.0451 78.0707 78.8409C78.1281 78.6683 78.1742 78.487 78.2202 78.3173C78.3554 77.7362 78.413 77.1205 78.413 76.4819C78.413 76.2316 78.4015 75.9699 78.3785 75.7195C78.367 75.4463 78.3324 75.173 78.2979 74.8997C78.2749 74.658 78.2317 74.4193 78.1857 74.169C78.1281 73.8037 78.0476 73.4412 77.9555 73.0758L77.9239 72.9378C77.8549 72.6875 77.7974 72.4487 77.7168 72.1984C77.4896 71.4131 77.2277 70.6479 76.9516 69.9316C76.8509 69.6468 76.7358 69.3735 76.6207 69.1002C76.451 68.6888 76.2784 68.3148 76.1202 67.961C76.0397 67.7999 75.9706 67.6532 75.9016 67.5036C75.8239 67.3339 75.7434 67.1642 75.6628 67.003C75.6053 66.8793 75.5391 66.7643 75.4931 66.6492L75.0012 65.7402C74.9321 65.6165 75.0472 65.4697 75.1824 65.5071L78.2605 66.3414H78.2691C78.2749 66.3414 78.2778 66.3443 78.2807 66.3443L78.6863 66.4565L79.1322 66.583L79.2961 66.6291V64.7995C79.2961 63.9163 80.0038 63.2 80.8784 63.2C81.3156 63.2 81.7126 63.3783 81.9974 63.6689C82.2822 63.9595 82.4606 64.3565 82.4606 64.7995V67.5151L82.7885 67.6071C82.8144 67.6158 82.8403 67.6273 82.8633 67.6445C82.9438 67.7049 83.0589 67.7942 83.2056 67.9034C83.3207 67.9955 83.4444 68.1077 83.594 68.2228C83.8903 68.4616 84.2441 68.7694 84.6325 69.1232C84.736 69.2124 84.8368 69.3044 84.9288 69.3965C85.4294 69.8625 85.9903 70.4091 86.5254 71.0132C86.675 71.1829 86.8217 71.3555 86.9713 71.5368C87.1209 71.7209 87.2791 71.9021 87.4172 72.0834C87.5984 72.325 87.794 72.5753 87.9637 72.8371C88.0443 72.9608 88.1363 73.0874 88.2141 73.2111C88.4326 73.5419 88.6254 73.8842 88.8095 74.2265C88.8872 74.3848 88.9678 74.5574 89.0368 74.7271C89.241 75.1845 89.4021 75.6505 89.5057 76.1166C89.5373 76.2173 89.5604 76.3266 89.5719 76.4244V76.4474C89.6063 76.5855 89.6178 76.7322 89.6294 76.8818C89.6754 77.3593 89.6524 77.8368 89.5488 78.3173C89.5057 78.5215 89.4482 78.7142 89.3791 78.9185C89.31 79.1141 89.241 79.3183 89.1519 79.5111C88.9793 79.911 88.775 80.3109 88.5333 80.6848C88.4557 80.8229 88.3636 80.9696 88.2715 81.1077C88.1709 81.2544 88.0673 81.3925 87.9752 81.5277C87.8487 81.7003 87.7135 81.8815 87.5754 82.0426C87.4517 82.2124 87.3251 82.3821 87.187 82.5317C86.9943 82.7589 86.8102 82.9747 86.6174 83.1819C86.5024 83.3171 86.3787 83.4551 86.2521 83.5788C86.1284 83.7169 86.0018 83.8406 85.8868 83.9556C85.694 84.1484 85.5329 84.298 85.3977 84.4217L85.0812 84.7123C85.0352 84.7525 84.9748 84.7756 84.9115 84.7756H82.4606V87.9198H85.5444C86.2348 87.9198 86.8907 87.6753 87.42 87.2265C87.6013 87.0683 88.3924 86.3836 89.3273 85.3509C89.3589 85.3164 89.3993 85.2905 89.4452 85.279L97.9633 82.8165C98.1215 82.7704 98.2826 82.8913 98.2826 83.0582Z" fill="#10151A"/>
</g>
</g>
<defs>
<filter id="filter0_d_8758_23282" x="5" y="5" width="150" height="150" filterUnits="userSpaceOnUse" color-interpolation-filters="sRGB">
<feFlood flood-opacity="0" result="BackgroundImageFix"/>
<feColorMatrix in="SourceAlpha" type="matrix" values="0 0 0 0 0 0 0 0 0 0 0 0 0 0 0 0 0 0 127 0" result="hardAlpha"/>
<feOffset/>
<feGaussianBlur stdDeviation="23.5"/>
<feComposite in2="hardAlpha" operator="out"/>
<feColorMatrix type="matrix" values="0 0 0 0 0.12549 0 0 0 0 0.505882 0 0 0 0 0.886275 0 0 0 0.3 0"/>
<feBlend mode="normal" in2="BackgroundImageFix" result="effect1_dropShadow_8758_23282"/>
<feBlend mode="normal" in="SourceGraphic" in2="effect1_dropShadow_8758_23282" result="shape"/>
</filter>
<linearGradient id="paint0_linear_8758_23282" x1="80" y1="52" x2="80" y2="108" gradientUnits="userSpaceOnUse">
<stop stop-color="#3E99F3"/>
<stop offset="1" stop-color="#2081E2"/>
</linearGradient>
<clipPath id="clip0_8758_23282">
<rect x="52" y="52" width="56" height="56" rx="28" fill="white"/>
</clipPath>
</defs>
</svg>
